<?xml version="1.0" encoding="utf-8"?>
<!-- Generator: Adobe Illustrator 24.1.2, SVG Export Plug-In . SVG Version: 6.00 Build 0)  -->
<svg version="1.1" id="Layer_1" xmlns="http://www.w3.org/2000/svg" xmlns:xlink="http://www.w3.org/1999/xlink" x="0px" y="0px"
	 viewBox="0 0 99.21 24" style="enable-background:new 0 0 99.21 24;" xml:space="preserve">
<style type="text/css">
	.st0{fill:#495678;}
	.st1{fill:#85C226;}
</style>
<g>
	<g>
		<polygon class="st0" points="0.52,0.4 0.52,23.59 5.21,23.59 5.21,13.47 14.37,13.47 14.37,23.59 19.04,23.59 19.04,0.4 
			14.41,0.4 14.41,9.54 5.21,9.54 5.21,0.4 		"/>
	</g>
	<path class="st0" d="M40.31,16.3c-0.73-1.13-1.54-2.12-2.4-2.93c3.67-1.26,4.52-3.98,4.52-6.22c0-1.35-0.35-2.6-1.03-3.71
		c-0.79-1.3-1.97-2.19-3.48-2.63c-0.96-0.29-2.28-0.43-4.04-0.43H23.47v23.22h4.76v-9.45h2.29c0.92,0,1.25,0.05,1.35,0.08
		c0.31,0.07,0.64,0.22,0.98,0.43c0.28,0.18,0.79,0.64,1.64,1.8c0.4,0.53,0.91,1.29,1.52,2.26l3.1,4.88h5.86L40.31,16.3z M37.57,7.14
		c0,0.5-0.13,0.95-0.41,1.38c-0.65,1.02-2.46,1.23-3.85,1.23h-5.08v-5.1h5.76C37.57,4.66,37.57,6.4,37.57,7.14z"/>
	<g>
		<path class="st1" d="M51.22,23.67h-1c-1.07,0-1.93-0.86-1.93-1.93v-1c0-1.07,0.86-1.93,1.93-1.93h1c1.07,0,1.93,0.86,1.93,1.93v1
			C53.14,22.81,52.28,23.67,51.22,23.67z"/>
	</g>
	<g>
		<path class="st1" d="M66.44,11.22v3.86h5.22v2.87c0,0-6.16,4.59-10.26-0.47c0,0-1.31-1.53-1.47-4.44s0.14-5.68,2.42-7.45
			s7.43-2.34,9.11,2.24l4.49-0.78c0,0-0.37-4.33-5.13-6.01c0,0-4.12-1.35-8.39-0.14c0,0-4.66,1.46-6.26,5.83s-1.42,9.31,1.54,13.32
			c0,0,3,4.04,8.97,3.73c5.97-0.31,8.76-2.79,9.64-3.49v-8.99L66.44,11.22z"/>
	</g>
	<g>
		<polygon class="st1" points="81.17,0.41 98.44,0.41 98.44,4.31 85.91,4.31 85.91,9.49 97.57,9.49 97.57,13.44 85.91,13.44 
			85.91,19.66 98.84,19.66 98.84,23.61 81.17,23.61 		"/>
	</g>
</g>
</svg>
