<svg width="129" height="40" viewBox="0 0 129 40" fill="none" xmlns="http://www.w3.org/2000/svg">
<g clip-path="url(#clip0_730_8894)">
<path d="M108.778 -0.0512695H19.4979C8.72276 -0.0512695 0 8.66668 0 19.4359V20.5385C0 31.3077 8.72276 40.0257 19.4979 40.0257H108.778C119.553 40.0257 128.276 31.3077 128.276 20.5385V19.4359C128.276 8.66668 119.553 -0.0512695 108.778 -0.0512695Z" fill="#A155B9"/>
<path d="M90.9219 20.4359C90.9219 28.7692 84.149 35.5128 75.8111 35.5128H20.2933C11.9553 35.5128 5.18237 28.7692 5.18237 20.4359V19.5641C5.18237 11.2308 11.9553 4.48718 20.2933 4.48718H75.8111C84.149 4.48718 90.9219 11.2308 90.9219 19.5641V20.4359Z" fill="white"/>
<path d="M99.1059 22.9744C99.1059 23.8974 98.3106 24.6923 97.387 24.6923C96.4121 24.6923 95.6681 23.8974 95.6681 22.9744C95.6681 22.0513 96.4121 21.2564 97.387 21.2564C98.3106 21.2564 99.1059 22.0513 99.1059 22.9744Z" fill="white"/>
<path d="M109.163 15.1025C108.547 15.2564 107.803 15.3333 106.777 15.3333C108.06 15.8718 108.675 16.641 108.675 17.9231C108.675 19.8718 107.085 21.282 104.494 21.282C104.057 21.282 103.698 21.2564 103.339 21.1795C103.108 21.282 102.98 21.5384 102.98 21.7436C102.98 22.0513 103.108 22.3333 104.083 22.3333H105.622C107.957 22.3333 109.471 23.5641 109.471 25.2564C109.471 27.3333 107.623 28.5897 104.186 28.5897C100.799 28.5897 99.6447 27.5897 99.4138 25.9487C99.3625 25.641 99.6447 25.3846 99.9525 25.3846H101.62C101.851 25.3846 102.056 25.5384 102.108 25.7692C102.236 26.359 102.775 26.6154 104.263 26.6154C106.033 26.6154 106.418 26.1282 106.418 25.4872C106.418 24.8974 106.033 24.4872 105.007 24.4872H103.544C101.338 24.4872 100.466 23.5897 100.466 22.5128C100.466 21.7949 100.953 21.0256 101.646 20.5897C100.363 19.8974 99.8243 19.0256 99.8243 17.7179C99.8243 15.4359 101.646 14.0256 104.237 14.0256C106.135 14.0769 107.367 13.641 108.419 13.0256C108.675 12.8718 109.034 13.0256 109.163 13.3333L109.522 14.4359C109.65 14.7179 109.471 15.0256 109.163 15.1025ZM102.826 17.641C102.826 18.7436 103.442 19.3333 104.365 19.3333C105.34 19.3333 105.879 18.7436 105.879 17.5897C105.879 16.4872 105.391 15.9487 104.365 15.9487C103.442 15.9743 102.826 16.6154 102.826 17.641Z" fill="white"/>
<path d="M119.22 20.2308H113.011C113.191 22.0256 114.063 22.5128 115.294 22.5128C115.961 22.5128 116.577 22.3077 117.27 21.8974C117.501 21.7436 117.808 21.8205 117.988 22L118.604 22.8718C118.783 23.1026 118.732 23.4359 118.476 23.6154C117.552 24.2308 116.397 24.6923 114.986 24.6923C111.626 24.6923 109.958 22.5385 109.958 19.4103C109.958 16.3846 111.6 14 114.627 14C117.501 14 119.271 15.8974 119.271 19.1282C119.271 19.4872 119.271 19.9487 119.22 20.2308ZM116.372 18.3077C116.32 16.9487 115.936 16 114.73 16C113.704 16 113.139 16.641 113.011 18.4359H116.372V18.3077Z" fill="white"/>
<path d="M29.4008 17.4872V24.9744C29.4008 25.2564 29.1699 25.5128 28.862 25.5128H26.6557C26.3478 25.5128 26.1169 25.2821 26.1169 24.9744V18.0513C26.1169 16.8718 25.7321 16.5641 25.1933 16.5641C24.5263 16.5641 24.0132 17.1026 23.5514 18V24.9744C23.5514 25.2564 23.2948 25.5128 23.0126 25.5128H20.755C20.4984 25.5128 20.2675 25.2821 20.2675 24.9744V18.0513C20.2675 16.8718 19.8314 16.5641 19.2926 16.5641C18.6256 16.5641 18.1125 17.1026 17.625 18V24.9744C17.625 25.2564 17.3942 25.5128 17.1376 25.5128H14.8799C14.6234 25.5128 14.3412 25.2821 14.3412 24.9744V15.0513C14.3412 14.7692 14.5977 14.5128 14.8799 14.5128H16.7784C17.035 14.5128 17.2146 14.6923 17.2659 14.9487L17.4455 15.8205C18.2921 14.718 19.2926 14.1795 20.6267 14.1795C21.8582 14.1795 22.7817 14.7949 23.2179 15.8975C24.0901 14.7436 25.1164 14.1795 26.4761 14.1795C28.2463 14.1795 29.4008 15.4103 29.4008 17.4872Z" fill="#414042"/>
<path d="M37.9439 25.5128C37.0973 28.1282 35.3784 29.7179 32.2485 30.0256C31.992 30.0513 31.7097 29.8718 31.6841 29.5897L31.5045 28.2821C31.4532 28.0256 31.6328 27.7436 31.8893 27.7179C33.3773 27.4615 34.147 26.9744 34.6601 26.0513C34.3009 25.9744 33.8648 25.3846 33.7365 24.9744L30.6835 15.2051C30.5553 14.8718 30.8118 14.5128 31.171 14.5128H33.5056C33.7622 14.5128 33.9417 14.6923 34.0444 14.9231L35.8915 23.3846L37.9696 14.8974C38.0209 14.6667 38.2262 14.5128 38.4571 14.5128H40.7147C41.0739 14.5128 41.3304 14.8718 41.2022 15.2051L37.9439 25.5128Z" fill="#414042"/>
<path d="M78.5048 18.718C76.5294 18.1282 76.2472 17.8975 76.2472 17.3077C76.2472 16.8205 76.6833 16.4872 77.5812 16.4872C78.2996 16.4872 78.9923 16.6667 79.6593 17C79.7363 17.0257 79.7876 17.0769 79.8646 17.1026C80.0955 17.2308 80.429 17.1539 80.5829 16.9231L81.2243 15.8718C81.3782 15.641 81.3012 15.3077 81.0704 15.1795C80.9934 15.1282 80.8138 15.0257 80.8138 15.0257C79.8902 14.4872 78.7101 14.1539 77.453 14.1539C74.6822 14.1539 72.9633 15.6154 72.9633 17.5128C72.9633 19.2052 74.0408 20.3334 76.1959 20.9487C78.1713 21.5128 78.5048 21.7436 78.5048 22.4872C78.5048 23.1539 77.9148 23.5128 76.9142 23.5128C76.0676 23.5128 75.2723 23.2564 74.5539 22.8205C74.477 22.7436 74.3744 22.6923 74.2974 22.6154C74.0921 22.4616 73.7843 22.5641 73.6304 22.7949L72.835 23.8975C72.6811 24.1282 72.7324 24.4359 72.912 24.6154C72.989 24.6667 73.0403 24.718 73.1172 24.7693C74.1435 25.4359 75.4775 25.8718 77.0168 25.8718C79.7363 25.8718 81.8913 24.5385 81.8913 22.2564C81.8913 20.2564 80.6855 19.3334 78.5048 18.718Z" fill="#414042"/>
<path d="M71.5009 19.9231C71.5009 23.359 69.859 25.8205 67.0882 25.8205C65.8568 25.8205 64.8562 25.2821 64.1892 24.4103L64.1122 24.9487C64.0609 25.2564 63.8044 25.4616 63.4965 25.4616H61.7263C61.3928 25.4616 61.1106 25.1795 61.1106 24.8462V10.5128C61.1106 10.2051 61.3415 9.92309 61.675 9.89745L63.7531 9.66668C64.1122 9.6154 64.4458 9.92309 64.4458 10.2821V15.4872C65.1128 14.5641 66.1903 14 67.4474 14C70.0386 14.0257 71.5009 16.2051 71.5009 19.9231ZM68.0888 19.9231C68.0888 17.1026 67.3448 16.4359 66.2929 16.4359C65.5489 16.4359 64.8819 16.9231 64.4201 17.7436V22.359C64.8306 23.0257 65.4463 23.4359 66.1647 23.4359C67.2935 23.4359 68.0888 22.5385 68.0888 19.9231Z" fill="#414042"/>
<path d="M46.8207 24.3077C46.8207 27.6924 45.2044 29.0513 42.8698 29.9744C42.5876 30.077 42.2541 29.9744 42.1258 29.6924L41.4844 28.2821C41.3561 28.0001 41.4844 27.6667 41.741 27.5385C42.8698 26.9744 43.5112 26.2821 43.5112 24.5129V15.1026C43.5112 14.7949 43.7677 14.5385 44.0756 14.5385H46.2306C46.5385 14.5385 46.795 14.7949 46.795 15.1026V24.3077H46.8207Z" fill="#414042"/>
<path d="M59.443 20C59.443 23.5128 57.4163 25.8205 54.0554 25.8205C50.7459 25.8205 48.6678 23.6667 48.6678 19.9744C48.6678 16.4616 50.6946 14.1539 54.0554 14.1539C57.3906 14.1795 59.443 16.3077 59.443 20ZM52.0543 20C52.0543 22.4359 52.7214 23.4359 54.0298 23.4359C55.3638 23.4359 56.0052 22.3846 56.0052 20.0257C56.0052 17.5898 55.3382 16.5641 54.0298 16.5641C52.7214 16.5385 52.0543 17.6154 52.0543 20Z" fill="#414042"/>
<path d="M47.1285 10.7693C47.1285 11.8462 46.3075 12.6411 45.153 12.6411C43.9986 12.6411 43.2032 11.8205 43.2032 10.7693C43.2032 9.69233 43.9986 8.89746 45.153 8.89746C46.3075 8.89746 47.1285 9.71797 47.1285 10.7693Z" fill="#414042"/>
</g>
<defs>
<clipPath id="clip0_730_8894">
<rect width="128.276" height="40" fill="white"/>
</clipPath>
</defs>
</svg>
