<?xml version="1.0" encoding="UTF-8"?>
<svg id="Layer_1" data-name="Layer 1" xmlns="http://www.w3.org/2000/svg" viewBox="0 0 821.54 195.32">
  <defs>
    <style>
      .cls-1 {
        fill: #1a1a1a;
      }
    </style>
  </defs>
  <path class="cls-1" d="M135.47,125.56c0,30.14-24.87,50.37-61.86,50.37C29.56,175.93,2.16,154.17.26,117.76l-.26-5.53h19.81l.32,4.95c1.48,25.13,21.5,40.1,53.48,40.1,23.18,0,41.99-13.49,41.99-30.14,0-21.92-14.38-26.61-41.89-33.67-2.95-.74-5.9-1.48-8.9-2.27l-1.84-.53c-31.88-8.59-57.12-15.33-57.12-45.63C5.85,17.65,29.51,0,66.18,0s58.85,18.39,63.65,49.21l.95,6.06h-19.86l-.79-4.27c-1.84-9.75-9.85-32.4-43.94-32.4-18.65,0-40.47,6.96-40.47,26.45,0,15.49,16.28,20.39,45.05,27.66l4.48,1.11c30.98,7.9,60.23,15.33,60.23,51.74Z"/>
  <path class="cls-1" d="M268.67,132.83h.63v-1.32c-.21.47-.42.9-.63,1.32Z"/>
  <path class="cls-1" d="M268.67,132.83h.63v-1.32c-.21.47-.42.9-.63,1.32Z"/>
  <path class="cls-1" d="M423.79,132.88h.63v-1.37c-.21.47-.42.95-.63,1.37Z"/>
  <path class="cls-1" d="M423.79,132.88h.63v-1.37c-.21.47-.42.95-.63,1.37Z"/>
  <polygon class="cls-1" points="597.73 172.49 572.99 172.49 506.36 82.87 478.63 109.74 478.63 172.49 458.78 172.49 458.78 0 478.63 0 478.63 82.72 562.35 2.17 590.65 2.17 520.52 69.27 597.73 172.49"/>
  <path class="cls-1" d="M727.97,86.41c0-54.11-27.19-86.41-72.71-86.41s-77.4,34.51-77.4,87.94,30.51,87.99,77.72,87.99c36.3,0,61.86-20.18,70.08-55.38l1.53-6.48h-20.18l-.95,4.16c-1.42,6.53-10.54,39.04-50.48,39.04s-56.75-34.56-57.8-65.6h130.2v-5.27ZM598.09,73.03c2.79-27.14,21.18-54.43,57.17-54.43s50.85,26.56,52.69,54.43h-109.86Z"/>
  <path class="cls-1" d="M821.54,1.9v17.65l-6.69-.05c-13.23-2.05-26.66,1.84-36.83,10.59-10.8,9.27-16.81,22.76-16.81,37.99v104.43h-19.86V2.16h19.86v19.81c10.59-13.49,26.66-21.97,43.57-21.97,5.06,0,8.96.32,12.54,1l4.22.9Z"/>
  <path class="cls-1" d="M424.42,131.51v1.37h-.63c.21-.42.42-.9.63-1.37Z"/>
  <path class="cls-1" d="M290.27,86.41c0-54.11-27.19-86.41-72.71-86.41s-77.4,34.51-77.4,87.94,30.51,87.99,77.72,87.99c36.3,0,61.86-20.18,70.08-55.38l1.53-6.48h-52.11v18.76h25.24c-6.38,11.28-19.28,24.45-44.73,24.45-41.2,0-56.75-34.56-57.8-65.6h130.2v-5.27ZM269.3,131.51v1.32h-.63c.21-.42.42-.84.63-1.32ZM160.39,73.03c2.79-27.14,21.18-54.43,57.17-54.43s50.85,26.56,52.69,54.43h-109.86Z"/>
  <path class="cls-1" d="M269.3,131.51v1.32h-.63c.21-.42.42-.84.63-1.32Z"/>
  <path class="cls-1" d="M372.68,0c-47,0-77.4,34.51-77.4,87.94,0,.79,0,1.58.05,2.37v85.25h-25.19v19.76h44.94v-44.89c13.59,16.28,33.51,25.5,57.91,25.5,36.3,0,61.86-20.18,70.08-55.38l1.53-6.48h-52.16v18.81h25.29c-6.43,11.28-19.34,24.4-44.73,24.4-41.2,0-56.75-34.56-57.8-65.6h130.2v-5.27c0-54.11-27.19-86.41-72.71-86.41M424.42,131.51v1.37h-.63c.21-.42.42-.9.63-1.37ZM315.51,73.03c2.79-27.14,21.18-54.43,57.17-54.43s50.85,26.56,52.69,54.43h-109.86Z"/>
</svg>