<?xml version="1.0" encoding="UTF-8"?>
<svg id="Layer_1" xmlns="http://www.w3.org/2000/svg" version="1.1" viewBox="0 0 1920 1080">
  <!-- Generator: Adobe Illustrator 29.6.0, SVG Export Plug-In . SVG Version: 2.1.1 Build 207)  -->
  <defs>
    <style>
      .st0 {
        display: none;
      }

      .st1 {
        fill: #b3b3b3;
      }

      .st2 {
        fill: #e6e6e6;
      }
    </style>
  </defs>
  <g id="Layer_11" data-name="Layer_1" class="st0">
    <circle class="st2" cx="960" cy="540" r="89.5"/>
  </g>
  <g id="Layer_2">
    <path class="st1" d="M1009.27,520.7h-6.32v-18.35c0-.77-.02-1.53-.05-2.29-1.16-25.5-21.57-45.79-46.56-45.79s-46.61,21.52-46.61,48.08v18.35h-6.32c-4.46,0-8.07,3.61-8.07,8.07v60.58c0,4.46,3.61,8.08,8.07,8.08h105.86c4.46,0,8.07-3.62,8.07-8.08v-60.58c0-4.46-3.61-8.07-8.07-8.07h0ZM956.34,465.15c19.92,0,36.07,16.65,36.07,37.2v18.35h-72.14v-18.35c0-20.55,16.15-37.2,36.07-37.2ZM968.01,565.79c1.33,2.3-.33,5.18-2.98,5.18h-17.38c-2.65,0-4.31-2.88-2.98-5.18l4.44-7.7c-3.68-2.09-6.36-5.72-7.17-10.01-.17-.89-.26-1.81-.26-2.75,0-2.95.87-5.7,2.37-8,2.62-4.01,7.14-6.66,12.29-6.66s9.67,2.65,12.29,6.66c1.5,2.3,2.37,5.05,2.37,8,0,.94-.09,1.86-.26,2.75-.81,4.29-3.49,7.92-7.17,10.01l4.44,7.7Z"/>
  </g>
</svg>