<?xml version="1.0" encoding="UTF-8"?>
<svg id="Layer_1" xmlns="http://www.w3.org/2000/svg" version="1.1" viewBox="0 0 1920 1080">
  <!-- Generator: Adobe Illustrator 29.6.0, SVG Export Plug-In . SVG Version: 2.1.1 Build 207)  -->
  <defs>
    <style>
      .st0 {
        fill: #b3b3b3;
      }
    </style>
  </defs>
  <g id="Layer_11" data-name="Layer_1">
    <path class="st0" d="M893.94,491.8c-.13.17-.25.34-.37.51-.29.4-.56.79-.84,1.19.13-.21.28-.41.43-.62.14-.2.29-.4.44-.61.11-.16.23-.31.34-.47h0Z"/>
    <path class="st0" d="M894.9,490.52c.32-.44.67-.88,1.02-1.32-.18.23-.36.46-.54.7-.16.2-.32.41-.48.62h0Z"/>
    <path class="st0" d="M895.92,489.2c.33-.42.67-.84,1.03-1.26-.16.19-.31.38-.46.57-.19.23-.39.46-.57.69Z"/>
    <polyline class="st0" points="960 540 953.68 536.25 938.02 526.95 933.96 524.54 926.36 520.02 889.68 498.24"/>
    <line class="st0" x1="883.04" y1="494.3" x2="870.5" y2="486.85"/>
    <polyline class="st0" points="960 541.34 957.13 538.3 954.61 535.63 946.43 526.95 933.96 513.74 927.09 506.46 903.23 481.16"/>
    <line class="st0" x1="897.93" y1="475.54" x2="889.1" y2="466.18"/>
    <path class="st0" d="M1049.5,540c0,49.43-40.07,89.5-89.5,89.5s-88.77-39.35-89.48-88.16h-5.02c-4.81,0-7.83-5.22-5.42-9.39l9.05-15.66c1.21-2.1,3.34-3.14,5.46-3.13,2.1.01,4.18,1.05,5.37,3.13l1.17,2.03,7.88,13.63c2.41,4.17-.6,9.39-5.42,9.39h-5.35c.71,44.54,37.05,80.44,81.76,80.44s81.78-36.62,81.78-81.78-36.62-81.78-81.78-81.78c-22.05,0-42.06,8.73-56.77,22.94h-.02c-.69.67-1.36,1.35-2.02,2.03-.1.1-.19.2-.29.3-1.18,1.24-2.33,2.51-3.42,3.82-.12.12-.23.25-.33.38-.02.02-.04.04-.05.06-.06.06-.11.12-.15.19-.36.42-.7.84-1.03,1.26-.35.44-.7.88-1.02,1.32h-.01c-.16.21-.31.41-.45.61-.18.22-.34.44-.5.67-.27.36-.53.72-.78,1.08-.15.21-.3.41-.43.62-.09.11-.16.22-.23.33-.37.53-.72,1.05-1.06,1.59-.02.02-.04.04-.04.06-1.04,1.51-3.05,1.97-4.63,1.03l-.68-.4c-1.7-1.01-2.22-3.22-1.14-4.87.38-.59.77-1.17,1.16-1.75,1.5-2.2,3.1-4.32,4.79-6.37.11-.15.24-.3.38-.46.37-.45.75-.89,1.14-1.33.08-.1.17-.21.27-.31.73-.83,1.47-1.65,2.24-2.45.15-.17.31-.34.48-.51.77-.81,1.56-1.6,2.36-2.38.04-.05.09-.1.15-.13,0-.02.01-.01.01-.01h.01c16.09-15.51,37.96-25.04,62.06-25.04,49.43,0,89.5,40.07,89.5,89.5h0Z"/>
    <path class="st0" d="M890.9,483.12c-1.69,2.05-3.29,4.17-4.79,6.37,1.49-2.2,3.09-4.32,4.79-6.37Z"/>
    <path class="st0" d="M894.93,478.57c-.77.8-1.51,1.62-2.24,2.45.72-.83,1.46-1.65,2.24-2.45Z"/>
  </g>
  <g id="Layer_2">
    <path class="st0" d="M998.21,526.95h-4.56v-13.25c0-.56-.01-1.1-.04-1.65-.84-18.41-15.57-33.05-33.61-33.05s-33.64,15.53-33.64,34.7v13.25h-4.56c-3.22,0-5.82,2.61-5.82,5.82v43.73c0,3.22,2.61,5.83,5.82,5.83h76.41c3.22,0,5.82-2.61,5.82-5.83v-43.73c0-3.22-2.61-5.82-5.82-5.82h0ZM960,486.85c14.38,0,26.04,12.02,26.04,26.85v13.25h-52.07v-13.25c0-14.83,11.66-26.85,26.04-26.85h0ZM968.42,559.5c.96,1.66-.24,3.74-2.15,3.74h-12.54c-1.91,0-3.11-2.08-2.15-3.74l3.2-5.56c-2.66-1.51-4.59-4.13-5.18-7.23-.12-.64-.19-1.31-.19-1.98,0-2.13.63-4.11,1.71-5.77,1.89-2.89,5.15-4.81,8.87-4.81s6.98,1.91,8.87,4.81c1.08,1.66,1.71,3.65,1.71,5.77,0,.68-.06,1.34-.19,1.98-.58,3.1-2.52,5.72-5.18,7.23l3.2,5.56h.02Z"/>
  </g>
</svg>