<?xml version="1.0" encoding="UTF-8"?>
<svg id="Layer_2" xmlns="http://www.w3.org/2000/svg" version="1.1" viewBox="0 0 1920 1080">
  <!-- Generator: Adobe Illustrator 29.6.0, SVG Export Plug-In . SVG Version: 2.1.1 Build 207)  -->
  <defs>
    <style>
      .st0 {
        fill: #b3b3b3;
      }
    </style>
  </defs>
  <path class="st0" d="M958.52,450.52h.16c-.33.01-.65.02-.98.04.27-.02.55-.03.82-.04Z"/>
  <path class="st0" d="M961.48,450.52c.27.01.55.02.82.04-.33-.02-.65-.03-.98-.04h.16Z"/>
  <path class="st0" d="M1004.75,495.25c0,7.74-1.97,15.02-5.43,21.38-7.59,13.92-22.35,23.37-39.32,23.37s-31.73-9.45-39.32-23.37c-3.46-6.36-5.43-13.64-5.43-21.38,0-2.32.18-4.59.52-6.81.05-.37.11-.74.18-1.11.51-2.84,1.28-5.59,2.3-8.21.1-.26.2-.51.31-.77.56-1.4,1.2-2.76,1.91-4.08.14-.27.29-.54.44-.81.54-.97,1.12-1.92,1.73-2.84.16-.24.32-.49.49-.73.12-.18.25-.36.38-.54.17-.25.35-.5.54-.74,1.85-2.5,3.96-4.8,6.29-6.86.22-.2.44-.39.67-.58.45-.39.9-.76,1.37-1.12.21-.18.43-.35.66-.51,2.19-1.66,4.54-3.12,7.02-4.36.23-.12.46-.23.7-.34,1.6-.77,3.26-1.44,4.96-2.01.67-.23,1.35-.44,2.03-.63,3.19-.91,6.52-1.47,9.95-1.64.33-.02.65-.03.98-.04h.66c.22-.01.44-.01.66-.01s.44,0,.66.01h.66c.33.01.65.02.98.04,3.43.17,6.76.73,9.95,1.64.68.19,1.36.4,2.03.63,1.7.57,3.36,1.24,4.96,2.01.24.11.47.22.7.34,2.48,1.24,4.83,2.7,7.02,4.36.23.16.45.33.66.51.47.36.92.73,1.37,1.12.23.19.45.38.67.58,2.33,2.06,4.44,4.36,6.29,6.86.19.24.37.49.54.74.13.18.26.36.38.54.17.24.33.49.49.73.61.92,1.19,1.87,1.73,2.84.15.27.3.54.44.81.71,1.32,1.35,2.68,1.91,4.08.11.26.21.51.31.77,1.02,2.62,1.79,5.37,2.3,8.21.07.37.13.74.18,1.11.34,2.22.52,4.49.52,6.81h0Z"/>
  <path class="st0" d="M1043.71,544.23c3.54,3.48,5.02,8.55,4.05,13.42-8.19,40.98-44.37,71.85-87.75,71.85s-79.57-30.88-87.75-71.85c-.97-4.87.5-9.94,4.05-13.42,6.21-6.1,13.1-11.53,20.52-16.16,6.27-3.91,14.53-2.67,19.2,3.06,10.41,12.74,26.25,20.88,43.98,20.88s33.57-8.14,43.98-20.88c4.68-5.73,12.93-6.97,19.2-3.06,7.43,4.63,14.31,10.06,20.52,16.16Z"/>
</svg>